<svg width="232" height="232" viewBox="0 0 232 232" fill="none" xmlns="http://www.w3.org/2000/svg">
<g clip-path="url(#clip0)">
<g opacity="0.5">
<path opacity="0.5" d="M115.9 231.8C179.91 231.8 231.8 179.91 231.8 115.9C231.8 51.8902 179.91 0 115.9 0C51.8902 0 0 51.8902 0 115.9C0 179.91 51.8902 231.8 115.9 231.8Z" fill="url(#paint0_linear)"/>
</g>
<path d="M113.4 226.8C176.029 226.8 226.8 176.029 226.8 113.4C226.8 50.7709 176.029 0 113.4 0C50.7709 0 0 50.7709 0 113.4C0 176.029 50.7709 226.8 113.4 226.8Z" fill="#F5F5F5"/>
<path d="M116.2 229C138.4 229 160 222.5 178.5 210.3C174.3 187.5 158.4 186.1 158.4 186.1H70.8C70.8 186.1 55.8 187.3 51.1 208.3C70.1 221.9 92.9 229.1 116.2 229Z" fill="#66CCFF"/>
<path d="M115 167.6C145.265 167.6 169.8 143.065 169.8 112.8C169.8 82.5348 145.265 58 115 58C84.7348 58 60.2 82.5348 60.2 112.8C60.2 143.065 84.7348 167.6 115 167.6Z" fill="black"/>
<path opacity="0.1" d="M97.3 158.4H132.4V186.5C132.4 196.2 124.5 204 114.9 204C105.2 204 97.4 196.1 97.4 186.5L97.3 158.4Z" fill="black"/>
<path d="M100.7 157.1H129.1C131 157.1 132.5 158.6 132.5 160.5V185.2C132.5 194.9 124.6 202.7 115 202.7C105.3 202.7 97.5 194.8 97.5 185.2V160.5C97.4 158.6 98.8 157.1 100.7 157.1Z" fill="#FBCEBA"/>
<path opacity="0.1" d="M97.4 171.6C108.7 175.8 121.2 175.9 132.5 171.7V167.4H97.4V171.6Z" fill="black"/>
<path d="M115 174C142.78 174 165.3 151.48 165.3 123.7C165.3 95.9201 142.78 73.4 115 73.4C87.2201 73.4 64.7 95.9201 64.7 123.7C64.7 151.48 87.2201 174 115 174Z" fill="#FBCEBA"/>
<path d="M114.9 77.3C126.056 77.3 135.1 68.2561 135.1 57.1C135.1 45.9438 126.056 36.9 114.9 36.9C103.744 36.9 94.7 45.9438 94.7 57.1C94.7 68.2561 103.744 77.3 114.9 77.3Z" fill="#070707"/>
<path d="M114.9 50.4C122.245 50.4 128.2 44.4454 128.2 37.1C128.2 29.7546 122.245 23.8 114.9 23.8C107.555 23.8 101.6 29.7546 101.6 37.1C101.6 44.4454 107.555 50.4 114.9 50.4Z" fill="black"/>
<path d="M106.2 68.2C96.3 63.8 91.7 52.4 95.7 42.3C95.6 42.6 95.4 42.9 95.3 43.2C90.7 53.4 95.3 65.4 105.5 70C115.7 74.6 127.7 70 132.3 59.8C132.4 59.5 132.5 59.2 132.7 58.9C127.6 68.5 116 72.6 106.2 68.2Z" fill="black"/>
<path opacity="0.1" d="M79.2 77.9C79.2 77.9 100.4 120.9 160.2 95.9L146.3 74.1L121.6 65.2L79.2 77.9Z" fill="black"/>
<path d="M79.2 77.3C79.2 77.3 100.4 120.3 160.2 95.3L146.3 73.5L121.6 64.6L79.2 77.3Z" fill="black"/>
<path d="M95.5 61.6C108.5 60.6 121.6 60.6 134.7 61.6C134.7 61.6 105.8 64.3 95.5 61.6Z" fill="#333333"/>
<path d="M118 23C117 23 116 23 115 23.2H115.8C123.1 23.4 128.9 29.6 128.6 36.9C128.4 43.1 123.9 48.4 117.8 49.5C125.1 49.6 131.1 43.7 131.2 36.3C131.2 29.1 125.3 23.1 118 23Z" fill="black"/>
<path d="M64.7 132.4C67.2957 132.4 69.4 128.46 69.4 123.6C69.4 118.74 67.2957 114.8 64.7 114.8C62.1043 114.8 60 118.74 60 123.6C60 128.46 62.1043 132.4 64.7 132.4Z" fill="#FBCEBA"/>
<path d="M165.3 132.4C167.896 132.4 170 128.46 170 123.6C170 118.74 167.896 114.8 165.3 114.8C162.704 114.8 160.6 118.74 160.6 123.6C160.6 128.46 162.704 132.4 165.3 132.4Z" fill="#FBCEBA"/>
<path d="M76 78.6L85.8 73.5L88 81.6L82 85.7L76 78.6Z" fill="black"/>
</g>
<defs>
<linearGradient id="paint0_linear" x1="115.89" y1="231.78" x2="115.89" y2="0" gradientUnits="userSpaceOnUse">
<stop stop-color="#808080" stop-opacity="0.25"/>
<stop offset="0.54" stop-color="#808080" stop-opacity="0.12"/>
<stop offset="1" stop-color="#808080" stop-opacity="0.1"/>
</linearGradient>
<clipPath id="clip0">
<rect width="231.8" height="231.8" fill="white"/>
</clipPath>
</defs>
</svg>
